<svg width="16" height="16" viewBox="0 0 16 16" fill="none" xmlns="http://www.w3.org/2000/svg">
<g clip-path="url(#clip0_324_1279)">
<path d="M15.9869 7.88173C15.9743 7.82685 15.9617 7.7962 15.9503 7.76776C15.9276 7.71463 15.9058 7.67457 15.8803 7.6291C15.7864 7.46573 15.6356 7.24445 15.429 6.9661C15.1205 6.55132 14.6955 6.02579 14.2142 5.50717C13.7325 4.98854 13.1981 4.47782 12.6539 4.0922C11.8844 3.54763 11.1362 3.1242 10.3698 2.83645C9.60406 2.54848 8.82019 2.39895 8 2.39942C7.17981 2.39895 6.39594 2.54848 5.63013 2.83648C4.86356 3.1242 4.11556 3.54763 3.34606 4.09198C2.53672 4.66723 1.73978 5.52101 1.12425 6.2626C0.817219 6.63342 0.558437 6.97504 0.371812 7.24151C0.278094 7.37501 0.202969 7.4892 0.145125 7.5856C0.115969 7.63457 0.0915 7.67829 0.068 7.72726C0.056125 7.75223 0.04475 7.77795 0.0321563 7.81401C0.0259688 7.83232 0.0192812 7.85357 0.013125 7.88176C0.0071875 7.9102 0.00025 7.94529 0 7.99992C0.00025 8.05432 0.00715625 8.08967 0.013125 8.11807C0.0254687 8.17295 0.0383438 8.20335 0.0496875 8.23201C0.0724375 8.28517 0.0941875 8.32523 0.119656 8.37045C0.213594 8.53385 0.364375 8.75532 0.571031 9.03367C0.879281 9.44848 1.30444 9.97423 1.78575 10.4929C2.26753 11.0115 2.80197 11.5219 3.34606 11.9076C4.11556 12.4521 4.86359 12.8754 5.63013 13.1633C6.39594 13.4511 7.17981 13.6009 8 13.6004C8.82019 13.6009 9.60406 13.4511 10.3699 13.1633C11.1362 12.8754 11.8844 12.4522 12.654 11.9078C13.4633 11.3326 14.2602 10.4788 14.8758 9.7372C15.1828 9.36638 15.4416 9.02476 15.6282 8.75829C15.7219 8.62457 15.797 8.5106 15.8549 8.41395C15.8841 8.36501 15.9086 8.32123 15.932 8.27254C15.9437 8.24757 15.9553 8.22185 15.9679 8.18551C15.9741 8.1672 15.9807 8.1462 15.9869 8.11804C15.9928 8.0896 15.9998 8.05429 16 7.99988C15.9997 7.94526 15.9928 7.91017 15.9869 7.88173ZM13.7691 9.47517C13.247 10.0709 12.626 10.6884 12.0691 11.0812C11.35 11.5902 10.6767 11.9667 10.0142 12.2154C9.35094 12.4638 8.69834 12.5874 8 12.5879C7.30169 12.5874 6.64906 12.4638 5.98588 12.2154C5.32338 11.9667 4.65 11.5902 3.93094 11.0812C3.25163 10.6026 2.48237 9.79235 1.90419 9.09154C1.61397 8.74126 1.36875 8.41717 1.20091 8.17742C1.15369 8.10995 1.11441 8.0516 1.08053 7.99992C1.27928 7.69463 1.71087 7.1167 2.23097 6.52492C2.75303 5.92892 3.374 5.31167 3.93094 4.91838C4.65003 4.40963 5.32341 4.03317 5.98588 3.78451C6.64909 3.53607 7.30169 3.41248 8 3.41198C8.69834 3.41248 9.35094 3.53604 10.0142 3.78451C10.6767 4.0332 11.35 4.40967 12.0691 4.91863C12.7484 5.39745 13.5177 6.20776 14.0958 6.90832C14.3861 7.25885 14.6313 7.58295 14.7992 7.82245C14.8463 7.88995 14.8857 7.94829 14.9195 7.99995C14.7207 8.3052 14.2892 8.88313 13.7691 9.47517Z" fill="#C7C7C7"/>
<path d="M8.00019 4.42798C6.02707 4.42798 4.42822 6.02757 4.42822 7.99995C4.42822 9.97282 6.0271 11.5719 8.00019 11.5719C9.97328 11.5719 11.5722 9.97285 11.5722 7.99995C11.5722 6.02757 9.97332 4.42798 8.00019 4.42798ZM8.00019 9.65842C7.08432 9.65842 6.342 8.91582 6.342 7.99998C6.342 7.0841 7.08432 6.34204 8.00019 6.34204C8.18038 6.34204 8.35319 6.37145 8.5156 6.42435L8.28325 7.13554C8.22366 7.31698 8.26422 7.51573 8.38979 7.6596C8.51538 7.80273 8.70719 7.86923 8.89453 7.83488L9.62969 7.69913C9.64775 7.79654 9.65838 7.89717 9.65838 7.99998C9.65838 8.91582 8.91607 9.65842 8.00019 9.65842Z" fill="#C7C7C7"/>
<path d="M13.6924 2.3999L2.4002 13.5069" stroke="#C7C7C7" stroke-width="2" stroke-linecap="round"/>
</g>
<defs>
<clipPath id="clip0_324_1279">
<rect width="16" height="16" fill="white"/>
</clipPath>
</defs>
</svg>
