<svg width="16" height="12" viewBox="0 0 16 12" fill="none" xmlns="http://www.w3.org/2000/svg">
<path d="M15.9869 5.48231C15.9743 5.42744 15.9617 5.39678 15.9503 5.36834C15.9276 5.31522 15.9058 5.27516 15.8803 5.22969C15.7864 5.06631 15.6356 4.84503 15.429 4.56669C15.1205 4.15191 14.6955 3.62638 14.2142 3.10775C13.7325 2.58913 13.1981 2.07841 12.6539 1.69278C11.8844 1.14822 11.1362 0.724782 10.3698 0.437032C9.60406 0.149063 8.82019 -0.000467651 8 1.09868e-06C7.17981 -0.000467651 6.39594 0.149064 5.63013 0.437064C4.86356 0.724782 4.11556 1.14822 3.34606 1.69256C2.53672 2.26781 1.73978 3.12159 1.12425 3.86319C0.817219 4.234 0.558437 4.57563 0.371812 4.84209C0.278094 4.97559 0.202969 5.08978 0.145125 5.18619C0.115969 5.23516 0.0915 5.27888 0.068 5.32784C0.056125 5.35281 0.04475 5.37853 0.0321563 5.41459C0.0259688 5.43291 0.0192812 5.45416 0.013125 5.48234C0.0071875 5.51078 0.00025 5.54588 0 5.6005C0.00025 5.65491 0.00715625 5.69025 0.013125 5.71866C0.0254687 5.77353 0.0383438 5.80394 0.0496875 5.83259C0.0724375 5.88575 0.0941875 5.92581 0.119656 5.97103C0.213594 6.13444 0.364375 6.35591 0.571031 6.63425C0.879281 7.04906 1.30444 7.57481 1.78575 8.09344C2.26753 8.61206 2.80197 9.12253 3.34606 9.50816C4.11556 10.0527 4.86359 10.4759 5.63013 10.7639C6.39594 11.0517 7.17981 11.2015 8 11.201C8.82019 11.2015 9.60406 11.0517 10.3699 10.7639C11.1362 10.4759 11.8844 10.0527 12.654 9.50841C13.4633 8.93316 14.2602 8.07938 14.8758 7.33778C15.1828 6.96697 15.4416 6.62534 15.6282 6.35888C15.7219 6.22516 15.797 6.11119 15.8549 6.01453C15.8841 5.96559 15.9086 5.92181 15.932 5.87313C15.9437 5.84816 15.9553 5.82244 15.9679 5.78609C15.9741 5.76778 15.9807 5.74678 15.9869 5.71863C15.9928 5.69019 15.9998 5.65488 16 5.60047C15.9997 5.54584 15.9928 5.51075 15.9869 5.48231ZM13.7691 7.07575C13.247 7.6715 12.626 8.289 12.0691 8.68181C11.35 9.19078 10.6767 9.56725 10.0142 9.81594C9.35094 10.0644 8.69834 10.188 8 10.1885C7.30169 10.188 6.64906 10.0644 5.98588 9.81594C5.32338 9.56725 4.65 9.19078 3.93094 8.68181C3.25163 8.20322 2.48237 7.39294 1.90419 6.69213C1.61397 6.34184 1.36875 6.01775 1.20091 5.778C1.15369 5.71053 1.11441 5.65219 1.08053 5.6005C1.27928 5.29522 1.71087 4.71728 2.23097 4.1255C2.75303 3.5295 3.374 2.91225 3.93094 2.51897C4.65003 2.01022 5.32341 1.63375 5.98588 1.38509C6.64909 1.13666 7.30169 1.01306 8 1.01256C8.69834 1.01306 9.35094 1.13663 10.0142 1.38509C10.6767 1.63378 11.35 2.01025 12.0691 2.51922C12.7484 2.99803 13.5177 3.80834 14.0958 4.50891C14.3861 4.85944 14.6313 5.18353 14.7992 5.42303C14.8463 5.49053 14.8857 5.54888 14.9195 5.60053C14.7207 5.90578 14.2892 6.48372 13.7691 7.07575Z" fill="#C7C7C7"/>
<path d="M7.9997 2.02832C6.02658 2.02832 4.42773 3.62791 4.42773 5.60029C4.42773 7.57316 6.02661 9.17226 7.9997 9.17226C9.9728 9.17226 11.5717 7.57319 11.5717 5.60029C11.5717 3.62791 9.97283 2.02832 7.9997 2.02832ZM7.9997 7.25876C7.08383 7.25876 6.34152 6.51616 6.34152 5.60032C6.34152 4.68445 7.08383 3.94238 7.9997 3.94238C8.17989 3.94238 8.3527 3.97179 8.51511 4.02469L8.28277 4.73588C8.22317 4.91732 8.26373 5.11607 8.3893 5.25994C8.51489 5.40307 8.7067 5.46957 8.89405 5.43523L9.6292 5.29948C9.64727 5.39688 9.65789 5.49751 9.65789 5.60032C9.65789 6.51616 8.91558 7.25876 7.9997 7.25876Z" fill="#C7C7C7"/>
</svg>
